<svg width="500" height="500" xmlns="http://www.w3.org/2000/svg" preserveAspectRatio="xMidYMid meet" version="1.0">
 <metadata>Created by potrace 1.16, written by Peter Selinger 2001-2019</metadata>

 <g>
  <title>Layer 1</title>
  <g id="svg_1" fill="#000000" transform="translate(0 500) scale(0.1 -0.1)">
   <path fill="#2092ce" id="svg_2" d="m2270,4619c-732,-82 -1365,-520 -1698,-1176c-146,-289 -218,-569 -229,-898c-18,-543 154,-1047 500,-1462c532,-637 1388,-913 2193,-708c638,163 1178,620 1443,1222c183,416 230,894 132,1343c-51,232 -172,515 -308,721c-350,528 -922,881 -1544,953c-142,17 -364,19 -489,5zm354,-894c205,-27 371,-80 499,-158l67,-42l0,-802c0,-507 4,-811 10,-828c16,-43 63,-55 210,-55l130,0l0,-83c0,-222 -92,-305 -325,-295c-87,4 -111,9 -166,35c-80,37 -125,76 -164,141l-30,49l-76,-54c-91,-63 -218,-124 -309,-148c-99,-26 -307,-31 -411,-11c-231,46 -388,185 -445,396c-24,88 -24,298 -1,394c63,255 245,399 572,451c73,12 473,35 603,35l32,0l0,275l0,276l-47,20c-116,50 -206,64 -413,64c-209,0 -302,-13 -440,-59l-70,-24l-10,38c-15,55 -40,228 -40,277l0,41l108,26c99,23 195,40 282,49c92,10 336,5 434,-8z"/>
   <path fill="#2092ce" id="svg_3" d="m2520,2444c-135,-7 -267,-17 -293,-23c-151,-35 -209,-99 -228,-253c-12,-95 1,-198 31,-258c44,-85 129,-123 280,-123c151,0 302,39 435,111l70,38l3,262l2,262l-27,-1c-16,-1 -138,-7 -273,-15z"/>
  </g>
 </g>
</svg>