<svg width="500" height="500" xmlns="http://www.w3.org/2000/svg" preserveAspectRatio="xMidYMid meet" version="1.0">
 <metadata>Created by potrace 1.16, written by Peter Selinger 2001-2019</metadata>

 <g>
  <title>Layer 1</title>
  <g id="svg_1" fill="#000000" transform="translate(0 500) scale(0.1 -0.1)">
   <path fill="#0677b5" id="svg_2" d="m1995,4775c-44,-7 -100,-18 -125,-25c-25,-7 -56,-14 -70,-17c-61,-10 -384,-118 -406,-135c-6,-4 -36,-16 -66,-26c-92,-30 -374,-198 -510,-304c-157,-121 -350,-310 -442,-432c-21,-28 -41,-53 -45,-56c-11,-8 -161,-236 -161,-244c0,-4 -13,-26 -29,-49c-60,-88 -81,-143 -81,-210c0,-71 10,-87 55,-87c33,0 99,41 123,76c78,116 127,184 177,245c105,131 316,338 435,427c63,48 117,90 120,93c4,6 143,88 295,175c66,37 255,111 356,139c198,54 245,66 279,71c19,2 70,11 112,19c114,21 504,21 629,0c52,-9 108,-18 124,-21c50,-8 245,-61 334,-90c192,-63 454,-210 607,-339c39,-33 92,-77 118,-98c26,-21 87,-87 137,-145c118,-140 119,-141 119,-151c0,-5 4,-11 8,-13c11,-4 109,-156 154,-238c20,-36 46,-94 59,-130c12,-36 26,-69 29,-75c8,-11 53,-142 56,-165c2,-8 7,-31 13,-50c21,-74 41,-172 46,-223c3,-28 9,-96 14,-151c9,-88 5,-186 -14,-359c-10,-102 -77,-342 -120,-435c-14,-29 -25,-57 -25,-62c0,-15 -87,-185 -102,-201c-8,-8 -24,-31 -36,-52c-131,-225 -497,-525 -742,-608c-36,-12 -70,-25 -76,-30c-6,-5 -69,-23 -140,-41c-126,-31 -134,-32 -349,-32c-213,0 -224,1 -345,32c-135,33 -326,106 -400,151c-26,16 -71,48 -101,71c-30,23 -78,59 -106,81c-29,22 -53,43 -53,47c0,5 -20,28 -45,53c-24,24 -45,49 -45,56c0,6 -4,13 -8,15c-25,10 -118,164 -158,263c-14,33 -29,69 -34,80c-34,70 -70,255 -70,363c0,134 33,284 104,469c35,92 144,244 233,324c57,51 200,131 285,159c99,33 236,45 331,31c148,-24 291,-94 387,-191c179,-181 185,-470 12,-594c-75,-53 -151,-37 -158,33c-8,67 -43,135 -89,170c-39,28 -56,34 -113,38c-104,8 -147,-8 -219,-81c-34,-35 -75,-90 -92,-124c-33,-66 -55,-176 -46,-232c3,-19 7,-51 9,-71c16,-128 167,-314 311,-383c135,-65 204,-80 360,-81c135,0 144,1 256,38c123,40 179,70 269,145c196,163 296,345 346,626c20,115 15,320 -9,398c-8,26 -13,49 -11,51c10,10 -52,157 -103,246c-113,195 -270,363 -445,475c-287,183 -656,250 -999,181c-258,-51 -377,-104 -616,-276c-210,-151 -466,-505 -541,-749c-38,-123 -72,-371 -72,-525c0,-133 25,-336 59,-487c15,-64 81,-239 119,-313c132,-261 339,-501 577,-669c173,-122 222,-152 291,-180c33,-12 75,-30 94,-39c52,-24 235,-84 315,-102c188,-44 433,-62 595,-45c63,7 131,14 150,16c80,8 261,54 405,104c247,86 319,124 574,308c57,40 246,224 313,303c124,147 142,170 186,248c24,41 47,80 52,86c22,26 150,290 150,309c0,11 7,34 15,50c9,16 17,37 19,45c1,9 13,49 25,89c12,40 24,85 25,100c2,15 11,52 19,82c8,30 15,62 15,70c0,8 7,65 15,125c30,204 17,505 -30,725c-9,41 -18,84 -20,95c-2,11 -13,51 -24,89c-11,38 -22,76 -24,85c-27,117 -142,367 -254,551c-11,19 -25,44 -30,56c-5,11 -15,27 -23,35c-7,8 -34,43 -60,79c-115,162 -414,440 -585,545c-176,108 -285,169 -328,186c-27,11 -84,34 -125,51c-41,17 -91,36 -110,44c-44,16 -228,73 -255,78c-11,2 -40,9 -63,16c-120,32 -237,40 -561,39c-206,-1 -356,-6 -406,-14z"/>
  </g>
 </g>
</svg>