<?xml version="1.0" standalone="no"?>
<!DOCTYPE svg PUBLIC "-//W3C//DTD SVG 20010904//EN"
 "http://www.w3.org/TR/2001/REC-SVG-20010904/DTD/svg10.dtd">
<svg version="1.0" xmlns="http://www.w3.org/2000/svg"
 width="2.400000pt" height="2.400000pt" viewBox="0 0 2.400000 2.400000"
 preserveAspectRatio="xMidYMid meet">
<metadata>
Created by potrace 1.16, written by Peter Selinger 2001-2019
</metadata>
<g transform="translate(0.000000,2.400000) scale(0.001311,-0.001311)"
fill="#000000" stroke="none">
<path d="M775 1784 c-258 -38 -472 -151 -628 -332 -100 -115 -168 -248 -138
-266 21 -13 46 4 86 61 131 186 340 333 550 389 85 22 271 30 358 14 166 -29
324 -110 434 -222 79 -80 106 -116 150 -202 103 -204 102 -446 -5 -651 -75
-144 -240 -273 -393 -310 -255 -60 -519 64 -612 288 -103 246 60 533 301 530
114 -1 225 -93 225 -186 0 -72 -61 -138 -98 -107 -8 7 -15 21 -15 32 0 10 -12
31 -26 45 -21 21 -32 25 -66 20 -96 -13 -146 -130 -99 -232 39 -85 131 -138
241 -138 149 -1 275 104 316 263 60 235 -81 463 -331 535 -81 24 -257 17 -335
-14 -155 -60 -288 -202 -341 -363 -21 -63 -24 -92 -24 -213 0 -126 3 -147 27
-213 73 -203 236 -359 445 -430 70 -24 93 -26 223 -26 171 0 228 13 370 81 83
40 108 59 196 147 90 90 107 113 152 206 68 137 83 199 89 351 8 193 -31 348
-125 507 -115 193 -340 355 -572 412 -83 20 -288 34 -355 24z"/>
</g>
</svg>
