<?xml version="1.0" standalone="no"?>
<!DOCTYPE svg PUBLIC "-//W3C//DTD SVG 20010904//EN"
 "http://www.w3.org/TR/2001/REC-SVG-20010904/DTD/svg10.dtd">
<svg version="1.0" xmlns="http://www.w3.org/2000/svg"
 width="183.000000pt" height="183.000000pt" viewBox="0 0 183.000000 183.000000"
 preserveAspectRatio="xMidYMid meet">

<g transform="translate(0.000000,183.000000) scale(0.100000,-0.100000)"
fill="#000000" stroke="none">
<path d="M762 1780 c-212 -30 -396 -118 -551 -265 -142 -135 -251 -325 -187
-325 9 0 47 40 86 89 149 190 318 306 525 362 114 31 336 32 448 1 282 -77
504 -299 568 -568 18 -74 20 -109 16 -204 -9 -191 -62 -315 -192 -446 -92 -93
-184 -145 -300 -169 -249 -52 -491 59 -593 273 -35 74 -37 81 -37 182 1 140
24 201 109 286 76 76 135 99 237 92 119 -9 207 -81 217 -177 10 -109 -105
-198 -124 -95 -17 91 -140 83 -180 -12 -42 -99 12 -211 125 -261 58 -26 175
-22 236 7 67 33 131 98 163 168 24 51 27 69 27 167 0 106 -2 113 -34 180 -69
140 -202 233 -367 257 -154 22 -317 -30 -436 -140 -128 -119 -190 -261 -191
-442 -2 -199 54 -334 198 -476 75 -75 107 -99 176 -132 195 -94 388 -105 596
-33 120 41 186 84 288 186 119 119 176 218 222 386 25 89 25 328 0 417 -77
283 -250 492 -505 609 -153 71 -379 106 -540 83z"/>
</g>
</svg>
