<?xml version="1.0" standalone="no"?>
<!DOCTYPE svg PUBLIC "-//W3C//DTD SVG 20010904//EN"
 "http://www.w3.org/TR/2001/REC-SVG-20010904/DTD/svg10.dtd">
<svg version="1.0" xmlns="http://www.w3.org/2000/svg"
 width="500.000000pt" height="500.000000pt" viewBox="0 0 500.000000 500.000000"
 preserveAspectRatio="xMidYMid meet">
<metadata>
Created by potrace 1.16, written by Peter Selinger 2001-2019
</metadata>
<g transform="translate(0.000000,500.000000) scale(0.100000,-0.100000)"
fill="#000000" stroke="none">
<path d="M1995 4775 c-44 -7 -100 -18 -125 -25 -25 -7 -56 -14 -70 -17 -61
-10 -384 -118 -406 -135 -6 -4 -36 -16 -66 -26 -92 -30 -374 -198 -510 -304
-157 -121 -350 -310 -442 -432 -21 -28 -41 -53 -45 -56 -11 -8 -161 -236 -161
-244 0 -4 -13 -26 -29 -49 -60 -88 -81 -143 -81 -210 0 -71 10 -87 55 -87 33
0 99 41 123 76 78 116 127 184 177 245 105 131 316 338 435 427 63 48 117 90
120 93 4 6 143 88 295 175 66 37 255 111 356 139 198 54 245 66 279 71 19 2
70 11 112 19 114 21 504 21 629 0 52 -9 108 -18 124 -21 50 -8 245 -61 334
-90 192 -63 454 -210 607 -339 39 -33 92 -77 118 -98 26 -21 87 -87 137 -145
118 -140 119 -141 119 -151 0 -5 4 -11 8 -13 11 -4 109 -156 154 -238 20 -36
46 -94 59 -130 12 -36 26 -69 29 -75 8 -11 53 -142 56 -165 2 -8 7 -31 13 -50
21 -74 41 -172 46 -223 3 -28 9 -96 14 -151 9 -88 5 -186 -14 -359 -10 -102
-77 -342 -120 -435 -14 -29 -25 -57 -25 -62 0 -15 -87 -185 -102 -201 -8 -8
-24 -31 -36 -52 -131 -225 -497 -525 -742 -608 -36 -12 -70 -25 -76 -30 -6 -5
-69 -23 -140 -41 -126 -31 -134 -32 -349 -32 -213 0 -224 1 -345 32 -135 33
-326 106 -400 151 -26 16 -71 48 -101 71 -30 23 -78 59 -106 81 -29 22 -53 43
-53 47 0 5 -20 28 -45 53 -24 24 -45 49 -45 56 0 6 -4 13 -8 15 -25 10 -118
164 -158 263 -14 33 -29 69 -34 80 -34 70 -70 255 -70 363 0 134 33 284 104
469 35 92 144 244 233 324 57 51 200 131 285 159 99 33 236 45 331 31 148 -24
291 -94 387 -191 179 -181 185 -470 12 -594 -75 -53 -151 -37 -158 33 -8 67
-43 135 -89 170 -39 28 -56 34 -113 38 -104 8 -147 -8 -219 -81 -34 -35 -75
-90 -92 -124 -33 -66 -55 -176 -46 -232 3 -19 7 -51 9 -71 16 -128 167 -314
311 -383 135 -65 204 -80 360 -81 135 0 144 1 256 38 123 40 179 70 269 145
196 163 296 345 346 626 20 115 15 320 -9 398 -8 26 -13 49 -11 51 10 10 -52
157 -103 246 -113 195 -270 363 -445 475 -287 183 -656 250 -999 181 -258 -51
-377 -104 -616 -276 -210 -151 -466 -505 -541 -749 -38 -123 -72 -371 -72
-525 0 -133 25 -336 59 -487 15 -64 81 -239 119 -313 132 -261 339 -501 577
-669 173 -122 222 -152 291 -180 33 -12 75 -30 94 -39 52 -24 235 -84 315
-102 188 -44 433 -62 595 -45 63 7 131 14 150 16 80 8 261 54 405 104 247 86
319 124 574 308 57 40 246 224 313 303 124 147 142 170 186 248 24 41 47 80
52 86 22 26 150 290 150 309 0 11 7 34 15 50 9 16 17 37 19 45 1 9 13 49 25
89 12 40 24 85 25 100 2 15 11 52 19 82 8 30 15 62 15 70 0 8 7 65 15 125 30
204 17 505 -30 725 -9 41 -18 84 -20 95 -2 11 -13 51 -24 89 -11 38 -22 76
-24 85 -27 117 -142 367 -254 551 -11 19 -25 44 -30 56 -5 11 -15 27 -23 35
-7 8 -34 43 -60 79 -115 162 -414 440 -585 545 -176 108 -285 169 -328 186
-27 11 -84 34 -125 51 -41 17 -91 36 -110 44 -44 16 -228 73 -255 78 -11 2
-40 9 -63 16 -120 32 -237 40 -561 39 -206 -1 -356 -6 -406 -14z"/>
</g>
</svg>
