<?xml version="1.0" standalone="no"?>
<!DOCTYPE svg PUBLIC "-//W3C//DTD SVG 20010904//EN"
 "http://www.w3.org/TR/2001/REC-SVG-20010904/DTD/svg10.dtd">
<svg version="1.0" xmlns="http://www.w3.org/2000/svg"
 width="500.000000pt" height="500.000000pt" viewBox="0 0 500.000000 500.000000"
 preserveAspectRatio="xMidYMid meet">
<metadata>
Created by potrace 1.16, written by Peter Selinger 2001-2019
</metadata>
<g transform="translate(0.000000,500.000000) scale(0.100000,-0.100000)"
fill="#000000" stroke="none">
<path d="M3341 1479 c0 -405 -4 -885 -8 -1067 l-6 -332 435 0 c435 0 435 0
468 23 18 12 47 39 64 60 l31 39 0 751 0 752 -367 3 c-318 2 -368 4 -368 17 0
8 -7 15 -15 15 -9 0 -15 9 -15 25 0 16 -6 25 -15 25 -9 0 -15 9 -15 25 0 16
-6 25 -15 25 -8 0 -15 9 -15 20 0 13 -7 20 -19 20 -15 0 -20 10 -26 55 -3 30
-11 55 -16 55 -5 0 -9 9 -9 20 0 15 -7 20 -25 20 -20 0 -25 5 -25 24 0 13 -5
26 -10 28 -6 2 -14 32 -19 68 -5 40 -9 -224 -10 -671z"/>
</g>
</svg>
