<?xml version="1.0" standalone="no"?>
<!DOCTYPE svg PUBLIC "-//W3C//DTD SVG 20010904//EN"
 "http://www.w3.org/TR/2001/REC-SVG-20010904/DTD/svg10.dtd">
<svg version="1.0" xmlns="http://www.w3.org/2000/svg"
 width="630.000000pt" height="630.000000pt" viewBox="0 0 630.000000 630.000000"
 preserveAspectRatio="xMidYMid meet">
<metadata>
Created by potrace 1.16, written by Peter Selinger 2001-2019
</metadata>
<g transform="translate(0.000000,630.000000) scale(0.100000,-0.100000)"
fill="#000000" stroke="none">
<path d="M2495 4759 c-170 -22 -99 -28 363 -28 466 -1 472 -1 472 19 0 20 -6
20 -387 19 -214 -1 -415 -5 -448 -10z"/>
<path d="M4240 1458 c0 -629 -3 -1214 -7 -1300 l-6 -158 555 0 556 0 53 28
c59 30 111 95 129 160 6 24 10 369 10 980 l0 942 -480 0 -480 0 0 25 c0 18 -5
25 -20 25 -16 0 -20 7 -20 35 0 28 -4 35 -20 35 -16 0 -20 7 -20 30 0 23 -4
30 -20 30 -16 0 -20 7 -20 30 0 23 -4 30 -20 30 -16 0 -20 7 -20 35 0 24 -5
35 -15 35 -10 0 -15 10 -15 30 0 17 -4 30 -10 30 -5 0 -10 14 -10 30 0 27 -3
30 -30 30 -27 0 -30 3 -30 30 0 27 -3 30 -30 30 l-30 0 0 -1142z"/>
</g>
</svg>
